<svg width="1567" height="318" viewBox="0 0 1567 318" fill="none" xmlns="http://www.w3.org/2000/svg" data-ember-extension="1">
<path d="M1332.63 34.562C1332.23 34.562 1331.83 34.594 1331.42 34.6593C1326.84 35.3926 1322.7 39.9286 1323.71 46.2526C1324.72 52.5753 1330.62 56.1446 1335.25 55.4073C1337.45 55.0526 1339.1 53.9073 1340.15 51.9926C1341.3 49.918 1341.65 47.03 1341.14 43.8673C1340.64 40.7606 1339.34 38.134 1337.46 36.4633C1336.05 35.2086 1334.4 34.562 1332.63 34.562ZM1333.91 62.0713C1325.94 62.0713 1318.59 55.774 1317.23 47.29C1315.75 37.9926 1321.52 29.598 1330.38 28.1793C1334.57 27.514 1338.62 28.714 1341.82 31.5606C1344.83 34.2326 1346.89 38.2366 1347.62 42.8273C1348.37 47.4953 1347.77 51.758 1345.9 55.154C1343.88 58.8286 1340.47 61.2166 1336.29 61.8833C1335.49 62.0113 1334.7 62.0713 1333.91 62.0713" fill="black"/>
<path fill-rule="evenodd" clip-rule="evenodd" d="M53.789 135.49C84.9941 84.8227 171.281 48.5541 221.948 79.7592C272.612 110.962 273.635 190.001 242.43 240.668C211.227 291.332 147.447 316.742 98.2727 283.235C51.0421 251.05 22.5838 186.157 53.789 135.49Z" fill="#FBF5AF"/>
<path fill-rule="evenodd" clip-rule="evenodd" d="M331.994 79.1571C332.245 89.7157 324.781 96.7473 311.959 101.344C301.29 105.168 290.569 95.0175 286.159 86.0201C281.208 75.9162 292.589 64.6393 311.343 61.29C322.5 59.2976 331.724 67.8271 331.994 79.1571Z" fill="#E84A51"/>
<path fill-rule="evenodd" clip-rule="evenodd" d="M1312.36 299.175C1304.9 311.376 1293.89 311.743 1281.04 303.885C1268.19 296.026 1263.14 267.903 1270.6 255.702C1278.06 243.5 1300.42 252.36 1313.27 260.219C1326.13 268.077 1319.82 286.974 1312.36 299.175Z" fill="#0CA64E"/>
<path fill-rule="evenodd" clip-rule="evenodd" d="M1435.74 117.482C1469.04 119.502 1497.1 152.58 1495.08 185.887C1493.06 219.192 1466.96 240.598 1433.66 238.578C1400.35 236.558 1370.91 211.75 1374.46 178.571C1377.88 146.704 1402.43 115.462 1435.74 117.482Z" fill="#28ABE2"/>
</svg>